<svg width="128" height="128" viewBox="0 0 128 128" xmlns="http://www.w3.org/2000/svg">
  <!-- Background circle - lavender-slate -->
  <circle cx="64" cy="64" r="64" fill="#a0a5c4"/>

  <!-- Face shape -->
  <ellipse cx="64" cy="68" rx="30" ry="34" fill="#e6c2a6"/>

  <!-- Hair - combover -->
  <ellipse cx="64" cy="42" rx="34" ry="24" fill="#696969"/>
  <ellipse cx="50" cy="38" rx="20" ry="8" fill="#a0a5c4"/>

  <!-- Eyes -->
  <circle cx="57" cy="64" r="2" fill="#2c3e50"/>
  <circle cx="71" cy="64" r="2" fill="#2c3e50"/>

  <!-- Bifocals -->
  <ellipse cx="57" cy="64" rx="8" ry="6" fill="none" stroke="#2c3e50" stroke-width="1.5"/>
  <ellipse cx="71" cy="64" rx="8" ry="6" fill="none" stroke="#2c3e50" stroke-width="1.5"/>
  <line x1="65" y1="64" x2="63" y2="64" stroke="#2c3e50" stroke-width="1.5"/>
  <line x1="57" y1="58" x2="57" y2="70" stroke="#2c3e50" stroke-width="0.5"/>

  <!-- Nose -->
  <ellipse cx="64" cy="70" rx="2" ry="4" fill="#dab894"/>

  <!-- Mouth -->
  <path d="M 60 76 Q 64 78 68 76" stroke="#2c3e50" stroke-width="1"/>

  <!-- Suit with bow tie -->
  <rect x="46" y="96" width="36" height="32" fill="#2c3e50"/>
  <polygon points="60,96 64,96 68,96 68,100 64,102 60,100" fill="#e74c3c"/>
</svg>